<svg width="256" height="256" viewBox="0 0 256 256" fill="none" xmlns="http://www.w3.org/2000/svg">
<path fill-rule="evenodd" clip-rule="evenodd" d="M256 0H0V256H256V0ZM32 129.967C32 76.9455 74.96 34 128 34C181.04 34 224 76.9455 224 129.967C223.997 150.076 217.685 169.676 205.952 186.01C194.22 202.343 177.659 214.587 158.6 221.017C153.8 221.976 152 218.977 152 216.458C152 215.375 152.013 213.501 152.031 211.006C152.067 206.039 152.12 198.611 152.12 190.067C152.12 181.07 149.12 175.312 145.64 172.313C167 169.914 189.44 161.757 189.44 124.929C189.44 114.373 185.72 105.856 179.6 99.1379C180.56 96.7387 183.92 86.9021 178.64 73.7066C178.64 73.7066 170.6 71.0675 152.24 83.5432C144.56 81.384 136.4 80.3043 128.24 80.3043C120.08 80.3043 111.92 81.384 104.24 83.5432C85.88 71.1874 77.84 73.7066 77.84 73.7066C72.56 86.9021 75.92 96.7387 76.88 99.1379C70.76 105.856 67.04 114.493 67.04 124.929C67.04 161.637 89.36 169.914 110.72 172.313C107.96 174.712 105.44 178.911 104.6 185.149C99.08 187.668 85.28 191.747 76.64 177.231C74.84 174.352 69.44 167.275 61.88 167.395C53.84 167.515 58.64 171.953 62 173.753C66.08 176.032 70.76 184.549 71.84 187.308C73.76 192.706 80 203.023 104.12 198.584C104.12 203.829 104.171 208.869 104.207 212.372C104.226 214.237 104.24 215.666 104.24 216.458C104.24 218.977 102.44 221.856 97.64 221.017C59.48 208.301 32 172.433 32 129.967Z" fill="white"/>
</svg>
